<?xml version="1.0" standalone="no"?>
<!DOCTYPE svg PUBLIC "-//W3C//DTD SVG 20010904//EN"
 "http://www.w3.org/TR/2001/REC-SVG-20010904/DTD/svg10.dtd">
<svg version="1.0" xmlns="http://www.w3.org/2000/svg"
 width="16.000000pt" height="16.000000pt" viewBox="0 0 16.000000 16.000000"
 preserveAspectRatio="xMidYMid meet">
<metadata>
Created by potrace 1.11, written by Peter Selinger 2001-2013
</metadata>
<g transform="translate(0.000000,16.000000) scale(0.016000,-0.016000)"
fill="#000000" stroke="none">
<path d="M205 883 c-91 -33 -157 -99 -189 -190 -19 -53 -23 -496 -5 -535 12
-28 58 -58 88 -58 67 0 101 50 101 148 l0 70 43 -10 c61 -14 134 -3 203 33
l61 30 38 -25 c21 -14 43 -26 49 -26 11 0 96 316 96 355 0 47 20 -13 60 -175
24 -96 44 -177 46 -179 9 -10 71 27 111 67 64 63 88 120 88 212 0 91 -24 149
-85 210 -62 62 -119 85 -210 84 -75 0 -110 -10 -173 -51 -22 -15 -30 -16 -45
-5 -77 56 -193 75 -277 45z m138 -194 c28 -13 57 -58 57 -89 0 -50 -51 -100
-101 -100 -30 0 -76 30 -88 57 -15 34 -14 60 6 93 27 46 77 61 126 39z"/>
</g>
</svg>
