<?xml version="1.0" encoding="UTF-8"?>
<svg width="25px" height="25px" viewBox="0 0 25 25" version="1.1" xmlns="http://www.w3.org/2000/svg" xmlns:xlink="http://www.w3.org/1999/xlink">
    <!-- Generator: Sketch 42 (36781) - http://www.bohemiancoding.com/sketch -->
    <title>linkedin icon</title>
    <desc>Created with Sketch.</desc>
    <defs></defs>
    <g id="Page-1" stroke="none" stroke-width="1" fill="none" fill-rule="evenodd">
        <g id="Desktop-HD-Copy" transform="translate(-713.000000, -2859.000000)" fill="#A8C8C6">
            <g id="contact-details" transform="translate(632.000000, 2859.000000)">
                <g id="linkedin-icon" transform="translate(81.000000, 0.000000)">
                    <path d="M0.630585607,8.01639134 L5.50329257,8.01639134 L5.50329257,24.9983993 L0.630585607,24.9983993 L0.630585607,8.01639134 Z M2.94273283,5.89223972 L2.90745532,5.89223972 C1.14357949,5.89223972 -7.10542736e-15,4.59405814 -7.10542736e-15,2.95012165 C-7.10542736e-15,1.27257011 1.17738711,0 2.97654045,0 C4.77422389,0 5.87958608,1.26936868 5.91486359,2.9453195 C5.91486359,4.58925599 4.77422389,5.89223972 2.94273283,5.89223972 L2.94273283,5.89223972 Z M25,25 L19.474659,25 L19.474659,16.2104623 C19.474659,13.9102318 18.6103598,12.341529 16.7097836,12.341529 C15.256056,12.341529 14.4476129,13.399603 14.0713194,14.4224613 C13.9302093,14.7874248 13.9522578,15.2980535 13.9522578,15.810283 L13.9522578,25 L8.47836312,25 C8.47836312,25 8.54891816,9.43142528 8.47836312,8.01639134 L13.9522578,8.01639134 L13.9522578,10.6815854 C14.275635,9.51626329 16.0248119,7.8531182 18.8161453,7.8531182 C22.2792215,7.8531182 25,10.2974132 25,15.555769 L25,25 L25,25 Z" id="Shape"></path>
                </g>
            </g>
        </g>
    </g>
</svg>