<?xml version="1.0" encoding="UTF-8"?>
<svg width="65px" height="52px" viewBox="0 0 65 52" version="1.1" xmlns="http://www.w3.org/2000/svg" xmlns:xlink="http://www.w3.org/1999/xlink">
    <!-- Generator: Sketch 42 (36781) - http://www.bohemiancoding.com/sketch -->
    <title>logo</title>
    <desc>Created with Sketch.</desc>
    <defs></defs>
    <g id="Page-1" stroke="none" stroke-width="1" fill="none" fill-rule="evenodd">
        <g id="Desktop-HD" transform="translate(-102.000000, -45.000000)" fill="#A8C8C6">
            <g id="logo" transform="translate(102.000000, 45.000000)">
                <path d="M51.7446651,37.8584749 L45.5,12.9588608 L39.2553349,37.8584749 C36.7326731,37.0089689 34.4412624,35.6589662 32.5,33.9269876 C29.0500828,37.0049757 24.4943038,38.8765823 19.5,38.8765823 C17.2208698,38.8765823 15.033063,38.4868172 13,37.7705065 L13,45.3412417 C13,48.9278901 10.0825462,51.835443 6.5,51.835443 C2.91014913,51.835443 0,48.9261769 0,45.331468 L0,23.8684608 C0,23.3098855 0.0705478162,22.7691953 0.203173955,22.2546097 C0.0693021064,21.3351169 0,20.3947716 0,19.4382911 C0,8.70281938 8.73044738,0 19.5,0 C24.4943038,0 29.0500828,1.87160659 32.5,4.9495947 C35.9499172,1.87160659 40.5056962,0 45.5,0 C56.2695526,0 65,8.70281938 65,19.4382911 C65,27.9966566 59.4514962,35.2632006 51.7446651,37.8584749 Z M19.5,25.9177215 C23.0898509,25.9177215 26,23.0167817 26,19.4382911 C26,15.8598006 23.0898509,12.9588608 19.5,12.9588608 C15.9101491,12.9588608 13,15.8598006 13,19.4382911 C13,23.0167817 15.9101491,25.9177215 19.5,25.9177215 Z" id="Combined-Shape"></path>
            </g>
        </g>
    </g>
</svg>