<?xml version="1.0" encoding="UTF-8"?>
<svg width="25px" height="19px" viewBox="0 0 25 19" version="1.1" xmlns="http://www.w3.org/2000/svg" xmlns:xlink="http://www.w3.org/1999/xlink">
    <!-- Generator: Sketch 42 (36781) - http://www.bohemiancoding.com/sketch -->
    <title>mail icon</title>
    <desc>Created with Sketch.</desc>
    <defs></defs>
    <g id="Page-1" stroke="none" stroke-width="1" fill="none" fill-rule="evenodd">
        <g id="Desktop-HD-Copy" transform="translate(-632.000000, -2862.000000)" fill="#A8C8C6">
            <g id="contact-details" transform="translate(632.000000, 2859.000000)">
                <g id="mail-icon" transform="translate(0.000000, 3.000000)">
                    <path d="M2.3994863,5.60445186 C1.82294521,5.24292034 1.27876712,4.74571543 0.767294521,4.11299564 C0.255821918,3.48027585 1.77635684e-15,2.89256919 1.77635684e-15,2.35019265 C1.77635684e-15,1.67879961 0.192979452,1.11914691 0.578938356,0.671393045 C0.96489726,0.223797682 1.51592466,0 2.23202055,0 L22.7678082,0 C23.372089,0 23.8953767,0.202242098 24.3371575,0.60688479 C24.7789384,1.01152748 25,1.4979546 25,2.06616613 C25,2.74627651 24.7722603,3.39627247 24.3162671,4.01583701 C23.8604452,4.63571855 23.2933219,5.16525684 22.6143836,5.60413487 C19.1174658,7.85114601 16.9409247,9.25004002 16.0854452,9.80097539 C15.9924658,9.86136273 15.7946918,9.9924397 15.4924658,10.1948403 C15.1902397,10.3972409 14.9392123,10.5609682 14.7392123,10.6857053 C14.5392123,10.8104424 14.2974315,10.9502367 14.0138699,11.1052467 C13.7303082,11.2599397 13.4626712,11.376435 13.2116438,11.453623 C12.9604452,11.5312865 12.727911,11.5698013 12.5140411,11.5698013 L12.5,11.5698013 L12.4859589,11.5698013 C12.272089,11.5698013 12.0395548,11.5312865 11.7883562,11.453623 C11.5373288,11.376435 11.269863,11.2600982 10.9861301,11.1052467 C10.7023973,10.9503952 10.4606164,10.8104424 10.2606164,10.6857053 C10.0607877,10.5609682 9.80958904,10.3972409 9.50736301,10.1948403 C9.20513699,9.99259819 9.00753425,9.86136273 8.91455479,9.80097539 C8.06815068,9.25019852 6.84982877,8.46468767 5.25941781,7.44460136 C3.66900685,6.42451504 2.71575342,5.81097338 2.3994863,5.60445186 Z M23.6047945,6.9860697 C24.1351027,6.65037318 24.6,6.27568641 25,5.86264338 L25,16.1154936 C25,16.6838636 24.7816781,17.1699737 24.3443493,17.5747749 C23.9071918,17.9795761 23.3816781,18.1818182 22.7679795,18.1818182 L2.23219178,18.1818182 C1.61832192,18.1818182 1.09280822,17.9795761 0.655650685,17.5747749 C0.218493151,17.1701322 1.77635684e-15,16.6838636 1.77635684e-15,16.1154936 L1.77635684e-15,5.86264338 C0.409246575,6.28440374 0.878938356,6.65909051 1.40907534,6.9860697 C4.77585616,9.10374734 7.0869863,10.5888637 8.34263699,11.4411017 C8.87277397,11.8026333 9.30291096,12.0847578 9.63304795,12.2868414 C9.96318493,12.489242 10.4027397,12.6957635 10.9513699,12.906723 C11.5,13.1176824 12.0116438,13.2230829 12.4859589,13.2230829 L12.5,13.2230829 L12.5142123,13.2230829 C12.9885274,13.2230829 13.5,13.1176824 14.0486301,12.906723 C14.5974315,12.6957635 15.0368151,12.489242 15.3669521,12.2868414 C15.6972603,12.0847578 16.1273973,11.8026333 16.6575342,11.4411017 C18.2383562,10.3821837 20.5544521,8.89706733 23.6047945,6.9860697 Z"></path>
                </g>
            </g>
        </g>
    </g>
</svg>