<?xml version="1.0" encoding="UTF-8"?>
<svg width="25px" height="22px" viewBox="0 0 25 22" version="1.1" xmlns="http://www.w3.org/2000/svg" xmlns:xlink="http://www.w3.org/1999/xlink">
    <!-- Generator: Sketch 42 (36781) - http://www.bohemiancoding.com/sketch -->
    <title>twitter icon</title>
    <desc>Created with Sketch.</desc>
    <defs></defs>
    <g id="Page-1" stroke="none" stroke-width="1" fill="none" fill-rule="evenodd">
        <g id="Desktop-HD-Copy" transform="translate(-794.000000, -2860.000000)" fill="#A8C8C6">
            <g id="contact-details" transform="translate(632.000000, 2859.000000)">
                <g id="twitter-icon" transform="translate(162.000000, 1.000000)">
                    <path d="M22.0549392,3.38777574 C23.1143981,2.71919688 23.9273346,1.65906605 24.3088572,0.396194878 C23.3168985,1.01679701 22.2207548,1.46561152 21.0512414,1.70859041 C20.1179785,0.656197767 18.7841169,0 17.3079181,0 C14.4758467,0 12.1808417,2.42205072 12.1808417,5.40898867 C12.1808417,5.833041 12.2233961,6.24625988 12.3114398,6.64090712 C8.0501262,6.41495223 4.27158537,4.26373785 1.74032987,0.98893956 C1.29864413,1.79061513 1.04625227,2.71919688 1.04625227,3.70968408 C1.04625227,5.5854192 1.95163468,7.24138998 3.32805071,8.21330554 C2.48723367,8.18544809 1.69630804,7.93937393 1.00369783,7.53698851 L1.00369783,7.60353686 C1.00369783,10.2252327 2.77044081,12.4120427 5.11973939,12.9072863 C4.68832541,13.0341924 4.23636791,13.0976455 3.76680167,13.0976455 C3.43663791,13.0976455 3.11381112,13.0651452 2.80272348,13.0016921 C3.45424664,15.1498112 5.34865293,16.7160191 7.59376651,16.7578052 C5.8372953,18.209488 3.6259318,19.0730691 1.22380701,19.0730691 C0.810001761,19.0730691 0.400598697,19.0498545 0,18.9987825 C2.27005928,20.53249 4.96566297,21.4285714 7.8622997,21.4285714 C17.2976463,21.4285714 22.4540706,13.1858608 22.4540706,6.03732899 C22.4540706,5.80208828 22.4511358,5.5683952 22.440864,5.3377974 C23.4430944,4.57481274 24.3147268,3.62146881 25,2.5365758 C24.0799437,2.96681868 23.0909198,3.25777429 22.0549392,3.38777574 Z" id="Shape"></path>
                </g>
            </g>
        </g>
    </g>
</svg>